# xmcd
#
# Track frame offsets: 
#        150
#        19050
#        34380
#        47845
#        68083
#        83297
#        101783
#        121532
#        138724
#        152761
#        167889
#
# Disc length: 2473 seconds
#
# Revision: 0
# Processed by: cddbd v1.5.2PL0 Copyright (c) Steve Scherf et al.
# Submitted via: ExactAudioCopy v0.99pb5
#
DISCID=8a09a70b
DTITLE=Martín and García (La tercera repúblilca) - Asociados
DYEAR=2008
DGENRE=Pop
TTITLE0=Acción
TTITLE1=Déjate besar
TTITLE2=Yo ya me iba
TTITLE3=No apagues mi luz
TTITLE4=Te quiero para mí
TTITLE5=Ya me lo dijo mamá
TTITLE6=Paraísos
TTITLE7=No va más
TTITLE8=Sirena
TTITLE9=Otra vez soledad
TTITLE10=Somos dos
EXTD=
EXTT0=
EXTT1=
EXTT2=
EXTT3=
EXTT4=
EXTT5=
EXTT6=
EXTT7=
EXTT8=
EXTT9=
EXTT10=
PLAYORDER=
